<svg id="Layer_2" data-name="Layer 2" xmlns="http://www.w3.org/2000/svg" xmlns:xlink="http://www.w3.org/1999/xlink" viewBox="0 0 400 300" width="406" height="306" class="illustration styles_illustrationTablet__1DWOa"><defs><linearGradient id="linear-gradient" x1="165.29" y1="240.76" x2="133.26" y2="217.61" gradientUnits="userSpaceOnUse"><stop offset="0.01" stop-color="#f2f2f2" stop-opacity="0"></stop><stop offset="1" stop-color="#dd6f31"></stop></linearGradient><linearGradient id="linear-gradient-2" x1="315.27" y1="219.26" x2="295.46" y2="204.94" xlink:href="#linear-gradient"></linearGradient><linearGradient id="linear-gradient-3" x1="46.16" y1="193.34" x2="57.74" y2="176.88" gradientUnits="userSpaceOnUse"><stop offset="0" stop-color="#fff" stop-opacity="0"></stop><stop offset="1" stop-color="#d43500"></stop></linearGradient></defs><title>PP</title><path d="M194.28,287,14.56,180.76c-5.72-3.21-10.63-8.49-5.05-11.94l180.37-104c2.71-1.68,6.82-2.78,9.57-1.18L388.11,173.18c5.72,3.32,6.75,12.6,1,15.93L218,286.81A23.9,23.9,0,0,1,194.28,287Z" fill="#ffc2a4"></path><path d="M108,219.82l22.69-5.33,55.57,21-23.55,14.32S118.77,226,108,219.82Z" opacity="0.32" fill="url(#linear-gradient)"></path><path d="M277.7,209.25l20-13.93L330.39,213l-23.07,13.66S288.47,215.4,277.7,209.25Z" opacity="0.32" fill="url(#linear-gradient-2)"></path><ellipse cx="260.79" cy="54.04" rx="26.55" ry="24.25" transform="matrix(0.09, -1, 1, 0.09, 184.78, 309.29)" fill="#f2ae16"></ellipse><ellipse cx="256.59" cy="52.81" rx="26.55" ry="24.25" transform="translate(182.16 303.99) rotate(-85.12)" fill="#ffd008"></ellipse><ellipse cx="256.59" cy="52.81" rx="23.27" ry="21.25" transform="translate(182.16 303.99) rotate(-85.12)" fill="none" stroke="#f7931e" stroke-miterlimit="10"></ellipse><path d="M257.24,35.34l3.9.66-.56,3.75,4,2.14-1.34,3.25a22.22,22.22,0,0,0-4.79-1.53,2.68,2.68,0,0,0-.77.06c.07,0-2.22.32-1.84,3.26l-.13-.26a3.87,3.87,0,0,0,.86,1.58,22.19,22.19,0,0,0,3.51,2.63c2.38,1.86,3.73,4.28,2.86,7.63A6.55,6.55,0,0,1,257,63.8a1.17,1.17,0,0,0-.37.1L256,68.27l-4-.66.57-3.83-4.94-2.67c.57-1.36,1-2.47,1.47-3.49,1.91.79,3.57,1.9,5.32,2.06a2.86,2.86,0,0,0,1.44-.33c2.54-1.26,1.33-4.11,1.1-4.57a4.46,4.46,0,0,0-.41-.62c-.86-1.06-2.24-1.58-3.33-2.42-2.14-1.64-3.5-3.75-2.85-6.83a6.36,6.36,0,0,1,5.24-5.34c.32-.07.64-.18,1-.29Z" fill="#f7931e"></path><path d="M263.64,79.3s-3.89-5.55-4.44-7.05,2.29-3.44,4.94-3.62,2.93,2.84,2.93,2.84a1.48,1.48,0,0,1,1.74.78c.64,1.15-1,4.68-1.16,4.78l3.08,3.76-5.12,2.51Z" fill="#ef986c"></path><path d="M297.86,199.13c0-2.19.1-4.39.12-6.58l-9.64,1.89s.48,3.73-.57,5.07-9.09,5.26-10,6.51-1.24,3.58,4.4,3.37,10.15-4.13,11.39-4.42,3.8-.63,4.61-1.21C298.06,202.21,297.85,200.66,297.86,199.13Z" fill="#2a343d"></path><path d="M314.26,201.9c0-2.19.1-4.39.12-6.58l-9.64,1.89s.48,3.73-.57,5.07-9.09,5.26-10,6.51-1.24,3.58,4.4,3.37,10.15-4.13,11.39-4.42,3.8-.63,4.61-1.21C314.46,205,314.25,203.43,314.26,201.9Z" fill="#2a343d"></path><path d="M309.84,107.85l-4.89.89a13.55,13.55,0,0,0,0-1.84c-1-.06-2-.15-3.06-.28-2.86-.35-5.21-3.22-7.89-4.28-1.15,5.54-1.47,17.64-2.82,26.42-1.72,11.12-6.95,62.76-5.46,67,0,0-.06,1.55,8.86,2,0,0,2.13,1.22,5.26-3.18l3.16-55-1.45,59c2.69,2.47,6.75,3.62,14.19-.1l3.58-74.74Z" fill="#35406e"></path><path d="M302.55,104.36q1.17.13,2.35.2c-.61-10.48-3.87-33.89-10.85-2.21A29.82,29.82,0,0,0,302.55,104.36Z" fill="#35406e"></path><path d="M315.29,150a8,8,0,0,1,5.07-8.56c6-2.43,5.92,7.93,5.92,7.93l3-1.19s1.77-10.94-8.84-10.18-9,13.07-9,13.07Z" fill="#ce4823"></path><path d="M323.61,134.91l-.08-.38a.94.94,0,0,0,0-.38L322.22,125a.69.69,0,0,0-.49-.61,8.17,8.17,0,0,0-.27-1.63,2.25,2.25,0,0,0-2.65-.46c-.45-.49-1.42-.56-1.54.27q-.23,1.49-.43,3h0l-.08-.32a.82.82,0,0,0-.37-.51c-.22-.74-.4-1.49-.57-2.23-.27-1.11-2-.64-1.72.47q.13.56.28,1.12c-.63-.18-1.41.27-1.11,1a29.53,29.53,0,0,1,2,8.34c-.42,1.74-.79,3.5-1.07,5.27-.18,1.09-.41,2.58,1,3a.9.9,0,0,0,1.1-.62q.4-1.79.66-3.6.2.67.41,1.33a23.81,23.81,0,0,0,1,2.76c.23.49.55.93,1.16.91a1.08,1.08,0,0,0,.92-.42,1.06,1.06,0,0,0,1.33.61c.79-.23,1-1.06,1-1.92C324.94,139.69,324,136.81,323.61,134.91Z" fill="#ef986c"></path><path d="M323.32,120.2a142.33,142.33,0,0,0-2.79-17.72c-1-4.67-2.07-12.44-3.8-16.93-1.34-3.49-4.78-4.66-8.69-5.27a65.53,65.53,0,0,0-11.95-1,1.17,1.17,0,0,1-.48-.08c-.31,0-.63.11-.93.19-1.19.3-2.37,3.77-2.71,4.79a25.52,25.52,0,0,0-1,6c-.47,5.37.47,10.57,1,15.88.23,2.26-.48,6,1.47,7.69,1.62,1.41,4.42,2.06,6.48,2.38a30.13,30.13,0,0,0,11.11-.62l2.35,15.5c4.29,1.67,10-.25,10-.25S323.93,127.48,323.32,120.2Z" fill="#68e1fd"></path><path d="M306.09,157.52a5.7,5.7,0,0,1,2.63-4.81c6.35-4.05,22-13.91,23.08-13,1.3,1.19,3.88,23.55,2.89,24.3-.75.57-16.6,8.59-24.38,12.51a2.91,2.91,0,0,1-4.22-2.6Z" fill="#ce4823"></path><path d="M295.61,79.21s-1.26,8.1,6.07,8.1,7.71-6.57,7.71-6.57A45.82,45.82,0,0,0,295.61,79.21Z" fill="#f2f2f2"></path><path d="M294.67,79.4s-10.38,7-15.43,7.91c-4.17.78-9.46-11.35-9.46-11.35L262.61,80S268.15,98,277,99.44s17.71-6.69,17.71-6.69" fill="#68e1fd"></path><path d="M305.38,77.31c-.06.2,0,2.58,0,2.58l-3.31.68h-3.4l-.63-2.5" fill="#db784d"></path><path d="M306,78.34s-2.07,2.07-3.94,2.23c-1.58.14-3.48-1.87-4-2.5a16.41,16.41,0,0,0,.93,5.76c.31.53.61.87.82.79.72-.29,2.09-2.23,2.09-2.23s1.53,2.32,2.17,2.24,2.76-3.82,2.76-3.82Z" fill="#35406e"></path><path d="M310.61,62.91a3.2,3.2,0,0,0-3.93-1,.62.62,0,0,0-.11-.16c-.83-.9-1.21-1.85-2.49-2.21a6.8,6.8,0,0,0-3.58.13,4.36,4.36,0,0,0-2.67,2,.54.54,0,0,0-.32-.08,4.79,4.79,0,0,0-4.58,4.89c.1,2.16,1.81,4.59,4,4.74a8,8,0,0,0,3.35.44,1.36,1.36,0,0,0,1-2.17l.16-.1.13.05a1.1,1.1,0,0,0,1.49.18l.19-.11a3.86,3.86,0,0,0,.8-.29l.31.11-.1.32a1.28,1.28,0,0,0,.58,1.44,2,2,0,0,0,.76.18,6.9,6.9,0,0,1-2.27,2.07c-1.22.62-.53,2.25.59,2.34-.54.4-.33,2.89.3,2.53a13,13,0,0,0,6.36-8.34C311,68.16,311.73,64.33,310.61,62.91Z" fill="#2a343d"></path><path d="M296,67.94c-.31-.06-.32,10.48,4,11.18,5.44.88,7.49-5.59,7.49-5.59s.8-4.79-2.6-6.39S299.91,68.64,296,67.94Z" fill="#ef986c"></path><path d="M296,67.94s4.29.8,6.59,0-1,6.59.7,6.59,1.6-4,2.9-2.5-2,6.13-2,6.13,4.63-2.33,5.69-6.32-4-7.79-8.93-7.39S296,67.94,296,67.94Z" fill="#2a343d"></path><ellipse cx="174.4" cy="83.94" rx="24.72" ry="27.07" transform="translate(-6.5 15.13) rotate(-4.88)" fill="#f2ae16"></ellipse><ellipse cx="178.68" cy="82.69" rx="24.72" ry="27.07" transform="translate(-6.38 15.49) rotate(-4.88)" fill="#ffd008"></ellipse><ellipse cx="178.68" cy="82.69" rx="21.66" ry="23.72" transform="translate(-6.38 15.49) rotate(-4.88)" fill="none" stroke="#f7931e" stroke-miterlimit="10"></ellipse><path d="M177.22,74.23a5.82,5.82,0,0,0-2,4.72l8.34-2.26c0,1.1,0,2.13.05,3.22l-8.19,2.21L175.8,84l7.83-2.12c0,1.11,0,2.16.05,3.24L176.8,87a5.1,5.1,0,0,0,4,3.36,5,5,0,0,0,2-.16A6.9,6.9,0,0,0,187,86.65l.41,2.06c.21,1,.4,2.11.64,3.15a.85.85,0,0,1-.32,1,11.77,11.77,0,0,1-4.14,2.1c-4.36,1.18-9.1-.49-11.67-6l-.29-.58-2.3.62c0-1.08,0-2.13-.05-3.22l1.4-.38-.37-1.86-2,.53c0-1.12,0-2.18,0-3.3.61-.17,1.65-.51,1.7-.53s.15-1.26.24-1.91q1-7.17,7.08-9.6a11.6,11.6,0,0,1,1.28-.43,10.56,10.56,0,0,1,4.17-.28c.52.06.74.24.72.92,0,1.55,0,3.11,0,4.7a5.09,5.09,0,0,0-4-.62A6.72,6.72,0,0,0,177.22,74.23Z" fill="#f7931e"></path><path d="M153.36,107.44q3.87-2,7.63-4.15a30.52,30.52,0,0,1,1.48-2.81,3.9,3.9,0,0,1,4-2.13,1.35,1.35,0,0,1-.09,2.66l-.21.25c3.11.14,8.72.6,7.46,3.67a2.36,2.36,0,0,1,.31.3,2,2,0,0,1-.19,2.7,2.28,2.28,0,0,1-2.12.57,2.14,2.14,0,0,1-2.74,1l-.76-.23a1.21,1.21,0,0,1-1.46,1.34l-2.57-.5c-5.83,1.86-8.73,2.53-10.93,4-.91.62,0,.85,0,0a1.22,1.22,0,0,1,.28-1.76l.25-.18a1.24,1.24,0,0,1-.21-1.81c.1-.13.21-.24.31-.36A1.39,1.39,0,0,1,153.36,107.44Z" fill="#ff7d09"></path><path d="M123.48,197.06l-1.42,20.06,2.51,2.17,2.79-.72s-.36-5.31.62-6.47,2.65,4.6,3.6,4.57,12.32-3.07,12.49-4.46c.22-1.85-2.34-4-7.16-2.8-5.22,1.27-6.13-4.61-7-10.25" fill="#f8997c"></path><path d="M131.64,201.07s-5,2.1-13.47-3.34c0,0,2.94-26.61,2.69-31.2s-5.37-37.67,1-45,17.66,62.87,17.12,63.26" fill="#68e1fd"></path><path d="M127.51,212.87l.47-.78s1.39-1.29,2.76-.66,1.17,5.4,1.17,5.4l-4.73-1.77A5.17,5.17,0,0,1,127.51,212.87Z" fill="#9e005d"></path><path d="M138.94,206.9l.49,20.11,2.71,1.92,2.71-1s-.86-5.25,0-6.5,3.08,4.33,4,4.21,12-4.22,12-5.63c0-1.87-2.7-3.73-7.39-2.11-5.08,1.75-6.54-4-7.9-9.54" fill="#f8997c"></path><path d="M144.45,222.26l.4-.82s1.26-1.42,2.69-.92,1.68,5.26,1.68,5.26l-4.88-1.31A5.17,5.17,0,0,1,144.45,222.26Z" fill="#9e005d"></path><path d="M140.59,129.42s8.42,22.69,10.33,32.53,2,46.69,1.3,47.68-8.86,2.73-14.38,2.64-4.76-43.57-4.76-43.57-15-38.08-11-42.26S140.59,129.42,140.59,129.42Z" fill="#68e1fd"></path><path d="M140.92,129.84c-7.64,2.41-17.34-.48-22-7,.88-10.74,2.73-28.5,5.48-31.16,4-3.85,12.62,1.62,15.75,7,1.61,2.77,4.65,12.64,4.65,12.64l11.76-6.7,3.57,8.36s-8.06,15.19-19,11.73Z" fill="#f8997c"></path><path d="M133.57,110.14a.45.45,0,0,1,.9,0c0,3.41.1,7.06,1.75,10.14,1.35,2.52,3.8,4.63,6.76,4.78.58,0,.58.93,0,.9a9.31,9.31,0,0,1-7.35-4.89C133.72,117.78,133.55,113.83,133.57,110.14Z" fill="#fff"></path><path d="M137.68,72.12c.62.13,1.61,1.12,3.1,4.62s-2.08,8-3.63,8.91-3.8,4.59-3.8,4.59-5.7,1.38-9.53-5.61S128.43,70.1,137.68,72.12Z" fill="#35406e"></path><path d="M139.29,76s2.87,11.67-1.36,14.34-9.95-4.41-10.5-7.24S130,74.17,139.29,76Z" fill="#ff7d09"></path><path d="M139.29,76s.71,7.63-3.24,9.3-4,4.07-4,4.07-7.22-3.86-8-7.28S133.77,73,139.29,76Z" fill="#35406e"></path><path d="M126,85.18c1.44,11.43-1.45,26.07,3.3,36.81.29.66.92,3.64,1.41,3.63l-11.53-6.29c-4.62-2.86-8-4.71-6.34-12s11-22.72,11-22.72Z" fill="#35406e"></path><path d="M143.62,105.56a88.11,88.11,0,0,1,1.71,9.2c.08.57-.83.57-.9,0a85.88,85.88,0,0,0-1.68-9C142.61,105.23,143.48,105,143.62,105.56Z" fill="#fff"></path><path d="M127.38,90.35,128.46,88a51.17,51.17,0,0,0,6.6,2.83c2.71.83,2,4,2,4S130.71,94.83,127.38,90.35Z" fill="#5fad00"></path><circle cx="246.47" cy="124.46" r="24.39" fill="#f2ae16"></circle><circle cx="244.08" cy="125.1" r="24.39" fill="#ffd008"></circle><path d="M252.79,126.82c.28-2.14.28-2.14-4.34-3L255,112.61h-4.67c-.84.44-1.34,1.45-2.3,3.44-1.14,2.37-2.26,4.75-3.5,7.37-1.2-2.63-2.24-5-3.31-7.27-.9-2-1.39-3-2.16-3.48H234.2c2.09,3.77,4.2,7.64,6.11,11.08-1.34,1.53-5-1.17-4.56,3.11h6v2.74h-5.88l-.4,1.13c1,2.85,4.39.5,6.54,1.87v6.09h4.87V132.3c6.18-.53,6.18-.53,5.83-2.75H247v-2.73Z" fill="#f7931e"></path><rect x="235.33" y="129.48" width="17.8" height="3.15" fill="#f7931e"></rect><rect x="235.23" y="123.77" width="17.8" height="3.15" fill="#f7931e"></rect><polygon points="234.15 112.61 239.56 112.61 244.54 123.43 249.39 112.61 255.01 112.61 248.45 123.8 244.13 125.68 234.15 112.61" fill="#f7931e"></polygon><circle cx="244.6" cy="125.1" r="21.29" fill="none" stroke="#f7931e" stroke-miterlimit="10"></circle><ellipse cx="244.08" cy="180.78" rx="22.95" ry="5.61" fill="#e8a182"></ellipse><path d="M227.25,28.82l-1,3.13a22,22,0,0,0-21.49,3.64l4.82,4-12.1,4.18V29.71l4.64,3.56S213.8,22.63,227.25,28.82Z" fill="#35406e"></path><path d="M180.15,121.21l3.09-1.12a22,22,0,0,0,16,14.79l.24-6.28,10.7,7L199,144.23l0-5.85S183.46,135.64,180.15,121.21Z" fill="#35406e"></path><path d="M57.34,159.26a3.9,3.9,0,0,1-1.63-.35l-.25,1.64,26.42.68v-2Z" fill="#ef8a3f"></path><path d="M55.7,159l-.24,1.58L70.05,169v-2C65.13,164.54,60.39,161.8,55.7,159Z" fill="#ef8a3f"></path><path d="M70.43,45.07a4.21,4.21,0,0,1-2.54-.36L51.15,173.85c1,.62,2.07,1.17,3.1,1.76L71.19,45Z" fill="#ef8a3f"></path><path d="M74.28,44.92a8.43,8.43,0,0,1-1.83,0c-.49,0-1,0-1.47.07l11.3,132.42a26.84,26.84,0,0,1,2.67-1.13l.44-.23.08,0Z" fill="#ef8a3f"></path><path d="M72.45,44.93a15.19,15.19,0,0,0-2,.14,5,5,0,0,1-.79,0l-1.1,140h0a3.45,3.45,0,0,1,1.77-.14l1,0,.56-.06L72.94,45Z" fill="#ef8a3f"></path><path d="M54.19,47.16V76.09s33.28,1,33.28,0V47.16" fill="#68e1fd"></path><ellipse cx="70.83" cy="47.1" rx="16.64" ry="7.71" fill="#35406e"></ellipse><ellipse cx="70.83" cy="76.52" rx="16.64" ry="7.71" fill="#68e1fd"></ellipse><polyline points="83.57 176.89 45.28 198.91 24.88 186.86 51.15 173.85" opacity="0.32" fill="url(#linear-gradient-3)"></polyline><path d="M135.41,209a.51.51,0,0,0-.48-.37h-.16l-.11,0c-.22-1.41-.68-3.88-.74-4.25-.3-1.86-.49-3.74-.64-5.61-.27-3.42-.35-6.86-.42-10.29-.14-6.55-.23-13.16-1.52-19.61-1.38-6.9-4.92-13-6.82-19.75a65.07,65.07,0,0,1-2.25-21.75c0-.64-1-.64-1,0A66,66,0,0,0,123.43,149c2,7.19,5.76,13.68,7.11,21.06s1.18,14.7,1.4,22.06c.11,3.57.29,7.14.74,10.69.23,1.79.17,6.16,1.89,7.18a.51.51,0,0,0,.61-.08A.75.75,0,0,0,135.41,209Z" fill="#35406e"></path></svg>